<svg width="477" height="477" viewBox="0 0 477 477" fill="none" xmlns="http://www.w3.org/2000/svg">
<path fill-rule="evenodd" clip-rule="evenodd" d="M149 24C140.163 24 133 31.1634 133 40C133 48.8366 140.163 56 149 56C157.837 56 165 48.8366 165 40C165 31.1634 157.837 24 149 24ZM109 40C109 17.9086 126.909 -2.86102e-06 149 0C166.911 1.90735e-06 182.072 11.7716 187.169 28L216 28C222.627 28 228 33.3726 228 40V85H249V40C249 36.8174 250.264 33.7652 252.515 31.5147C254.765 29.2643 257.817 28 261 28L289.831 28C294.928 11.7716 310.089 2.19345e-05 328 2.38419e-05C350.091 2.67029e-05 368 17.9086 368 40C368 62.0914 350.091 80 328 80C310.089 80 294.928 68.2284 289.831 52L273 52V85.2695C278.407 86.4351 282.459 91.2443 282.459 97V125.878C283.766 126.392 285.061 126.929 286.344 127.488L306.765 107.068C311.451 102.381 319.049 102.381 323.735 107.068L368.932 152.265C373.619 156.951 373.619 164.549 368.932 169.235L348.512 189.656C349.071 190.939 349.608 192.234 350.123 193.541H379C385.105 193.541 390.146 198.1 390.902 204H425V187.169C408.772 182.072 397 166.911 397 149C397 126.909 414.909 109 437 109C459.091 109 477 126.909 477 149C477 166.911 465.228 182.072 449 187.169V216C449 222.627 443.627 228 437 228H391V249H437C443.627 249 449 254.373 449 261V289.831C465.228 294.928 477 310.089 477 328C477 350.091 459.091 368 437 368C414.909 368 397 350.091 397 328C397 310.089 408.772 294.928 425 289.831V273H390.469C388.958 277.899 384.395 281.459 379 281.459H350.122C349.608 282.766 349.071 284.061 348.512 285.344L368.932 305.765C373.619 310.451 373.619 318.049 368.932 322.735L323.735 367.932C321.485 370.183 318.432 371.447 315.25 371.447C312.067 371.447 309.015 370.183 306.765 367.932L286.344 347.512C285.061 348.071 283.766 348.608 282.459 349.122V378C282.459 383.756 278.407 388.565 273 389.73V425H289.831C294.928 408.772 310.089 397 328 397C350.091 397 368 414.909 368 437C368 459.091 350.091 477 328 477C310.089 477 294.928 465.228 289.831 449H261C254.373 449 249 443.627 249 437V390H228V437C228 443.627 222.627 449 216 449H187.169C182.072 465.228 166.911 477 149 477C126.909 477 109 459.091 109 437C109 414.909 126.909 397 149 397C166.911 397 182.072 408.772 187.169 425H204V389.73C198.593 388.565 194.541 383.756 194.541 378V349.122C193.234 348.608 191.939 348.071 190.656 347.512L170.235 367.932C167.985 370.183 164.933 371.447 161.75 371.447C158.568 371.447 155.515 370.183 153.265 367.932L108.068 322.735C105.817 320.485 104.553 317.433 104.553 314.25C104.553 311.067 105.817 308.015 108.068 305.765L128.488 285.344C127.929 284.061 127.392 282.766 126.878 281.459H98C92.6051 281.459 88.0417 277.899 86.5309 273L52 273L52 289.831C68.2284 294.928 80 310.089 80 328C80 350.091 62.0914 368 40 368C17.9086 368 -1.90735e-06 350.091 0 328C1.90735e-06 310.089 11.7716 294.928 28 289.831L28 261C28 257.817 29.2643 254.765 31.5147 252.515C33.7652 250.264 36.8174 249 40 249L86 249V228L40 228C33.3726 228 28 222.627 28 216L28 187.169C11.7716 182.072 1.33514e-05 166.911 1.52588e-05 149C1.71661e-05 126.909 17.9086 109 40 109C62.0914 109 80 126.909 80 149C80 166.911 68.2284 182.072 52 187.169L52 204L86.098 204C86.8542 198.1 91.8946 193.541 98 193.541H126.878C127.392 192.234 127.929 190.939 128.488 189.656L108.068 169.235C105.817 166.985 104.553 163.933 104.553 160.75C104.553 157.568 105.817 154.515 108.068 152.265L153.265 107.068C155.515 104.817 158.567 103.553 161.75 103.553C164.933 103.553 167.985 104.817 170.235 107.068L190.656 127.488C191.939 126.929 193.234 126.392 194.541 125.878V97C194.541 91.2443 198.593 86.4351 204 85.2695V52L187.169 52C182.072 68.2284 166.911 80 149 80C126.909 80 109 62.0914 109 40ZM218.541 109.731V134.372C218.541 139.633 215.115 144.28 210.089 145.835C204.412 147.593 198.959 149.864 193.783 152.596C189.129 155.053 183.417 154.191 179.696 150.469L161.75 132.524L133.523 160.75L151.469 178.696C155.191 182.417 156.053 188.129 153.596 192.783C150.864 197.959 148.593 203.412 146.835 209.089C145.28 214.115 140.633 217.541 135.372 217.541H110V257.459H135.372C140.633 257.459 145.28 260.885 146.835 265.911C148.593 271.588 150.864 277.041 153.596 282.217C156.053 286.871 155.191 292.583 151.469 296.304L133.524 314.25L161.75 342.477L179.696 324.531C183.417 320.809 189.129 319.947 193.783 322.404C198.959 325.136 204.412 327.407 210.089 329.165C215.115 330.72 218.541 335.367 218.541 340.628V366H258.459V340.628C258.459 335.367 261.885 330.72 266.911 329.165C272.588 327.407 278.041 325.136 283.217 322.404C287.871 319.947 293.583 320.809 297.304 324.531L315.25 342.477L343.476 314.25L325.531 296.304C321.809 292.583 320.947 286.871 323.404 282.217C326.136 277.041 328.407 271.588 330.165 265.911C331.72 260.885 336.367 257.459 341.628 257.459H367V217.541H341.628C336.367 217.541 331.72 214.115 330.165 209.089C328.407 203.412 326.136 197.959 323.404 192.783C320.947 188.129 321.809 182.417 325.531 178.696L343.477 160.75L315.25 132.524L297.304 150.469C293.583 154.191 287.871 155.053 283.217 152.596C278.041 149.864 272.588 147.593 266.911 145.835C261.885 144.28 258.459 139.633 258.459 134.372V109H220.803C220.083 109.315 219.326 109.561 218.541 109.731ZM328 24C319.163 24 312 31.1635 312 40C312 48.8366 319.163 56 328 56C336.837 56 344 48.8366 344 40C344 31.1635 336.837 24 328 24ZM40 133C31.1635 133 24 140.163 24 149C24 157.837 31.1635 165 40 165C48.8366 165 56 157.837 56 149C56 140.163 48.8366 133 40 133ZM437 133C428.163 133 421 140.163 421 149C421 157.837 428.163 165 437 165C445.837 165 453 157.837 453 149C453 140.163 445.837 133 437 133ZM239 188C211.386 188 189 210.386 189 238C189 265.614 211.386 288 239 288C266.614 288 289 265.614 289 238C289 210.386 266.614 188 239 188ZM165 238C165 197.131 198.131 164 239 164C279.869 164 313 197.131 313 238C313 278.869 279.869 312 239 312C198.131 312 165 278.869 165 238ZM40 312C31.1634 312 24 319.163 24 328C24 336.837 31.1634 344 40 344C48.8366 344 56 336.837 56 328C56 319.163 48.8366 312 40 312ZM437 312C428.163 312 421 319.163 421 328C421 336.837 428.163 344 437 344C445.837 344 453 336.837 453 328C453 319.163 445.837 312 437 312ZM149 421C140.163 421 133 428.163 133 437C133 445.837 140.163 453 149 453C157.837 453 165 445.837 165 437C165 428.163 157.837 421 149 421ZM328 421C319.163 421 312 428.163 312 437C312 445.837 319.163 453 328 453C336.837 453 344 445.837 344 437C344 428.163 336.837 421 328 421Z" fill="#A9CC29"/>
</svg>
